<?xml version="1.0" encoding="UTF-8" standalone="no"?>
<svg
   xmlns:dc="http://purl.org/dc/elements/1.1/"
   xmlns:cc="http://creativecommons.org/ns#"
   xmlns:rdf="http://www.w3.org/1999/02/22-rdf-syntax-ns#"
   xmlns:svg="http://www.w3.org/2000/svg"
   xmlns="http://www.w3.org/2000/svg"
   xmlns:sodipodi="http://sodipodi.sourceforge.net/DTD/sodipodi-0.dtd"
   xmlns:inkscape="http://www.inkscape.org/namespaces/inkscape"
   id="Capa_1"
   x="0px"
   y="0px"
   viewBox="0 0 512 512"
   style="enable-background:new 0 0 512 512;"
   xml:space="preserve"
   version="1.1"
   sodipodi:docname="call_footer_icon.svg"
   inkscape:version="1.0.1 (3bc2e813f5, 2020-09-07)"><metadata
   id="metadata17"><rdf:RDF><cc:Work
       rdf:about=""><dc:format>image/svg+xml</dc:format><dc:type
         rdf:resource="http://purl.org/dc/dcmitype/StillImage" /></cc:Work></rdf:RDF></metadata><defs
   id="defs15" /><sodipodi:namedview
   pagecolor="#ffffff"
   bordercolor="#666666"
   borderopacity="1"
   objecttolerance="10"
   gridtolerance="10"
   guidetolerance="10"
   inkscape:pageopacity="0"
   inkscape:pageshadow="2"
   inkscape:window-width="1858"
   inkscape:window-height="1053"
   id="namedview13"
   showgrid="false"
   inkscape:zoom="1.6835938"
   inkscape:cx="141.66125"
   inkscape:cy="256"
   inkscape:window-x="0"
   inkscape:window-y="-10"
   inkscape:window-maximized="1"
   inkscape:current-layer="g10" /> <style
   type="text/css"
   id="style2"> .st0{fill:#414347;} </style> <g
   id="g10"> <g
   id="g8"> <g
   id="g6"> <path
   class="st0"
   d="M470.9,336.1c-31.3,0-62.1-4.9-91.3-14.5c-14.3-4.9-31.9-0.4-40.6,8.6l-57.6,43.5 c-66.8-35.6-107.9-76.8-143-143l42.2-56.1c11-10.9,14.9-26.9,10.2-41.9c-9.7-29.3-14.6-60.1-14.6-91.4 c0-22.7-18.4-41.1-41.1-41.1h-94C18.4,0,0,18.4,0,41.1C0,300.8,211.3,512,470.9,512c22.7,0,41.1-18.4,41.1-41.1v-93.8 C512,354.5,493.6,336.1,470.9,336.1z"
   id="path4" /> </g> </g> </g> </svg>
