<?xml version="1.0" encoding="UTF-8"?> <svg xmlns="http://www.w3.org/2000/svg" id="Слой_1" data-name="Слой 1" viewBox="0 0 29.39 29.39"> <defs> <style>.cls-1{fill:#414347;fill-rule:evenodd;}</style> </defs> <title>fb</title> <path class="cls-1" d="M934.88,554.54a1.62,1.62,0,0,0,1.62-1.62V526.77a1.62,1.62,0,0,0-1.62-1.62H908.73a1.62,1.62,0,0,0-1.63,1.62v26.15a1.62,1.62,0,0,0,1.63,1.62H922.8V543.16H919v-4.44h3.83v-3.27c0-3.79,2.32-5.86,5.71-5.86a32.88,32.88,0,0,1,3.42.17v4h-2.35c-1.84,0-2.2.88-2.2,2.16v2.83h4.4l-.57,4.44h-3.83v11.38Z" transform="translate(-907.1 -525.15)"></path> </svg> 