<?xml version="1.0" encoding="UTF-8"?> <!-- Generator: Adobe Illustrator 19.2.1, SVG Export Plug-In . SVG Version: 6.00 Build 0) --> <svg xmlns="http://www.w3.org/2000/svg" xmlns:xlink="http://www.w3.org/1999/xlink" id="Слой_1" x="0px" y="0px" viewBox="0 0 29.4 29.4" style="enable-background:new 0 0 29.4 29.4;" xml:space="preserve"> <style type="text/css"> .st0{fill:#414347;} </style> <title>instagram</title> <path class="st0" d="M14.3,0c-3.7,0-4.2,0-5.7,0.1c-1.2,0-2.4,0.3-3.6,0.7c-2,0.8-3.5,2.3-4.3,4.3C0.3,6.2,0.1,7.4,0.1,8.6 C0,10.2,0,10.7,0,14.7s0,4.5,0.1,6.1c0,1.2,0.3,2.4,0.7,3.6c0.8,2,2.3,3.5,4.3,4.3c1.1,0.4,2.4,0.7,3.6,0.7c1.6,0.1,2.1,0.1,6.1,0.1 s4.5,0,6.1-0.1c1.2,0,2.4-0.3,3.6-0.7c2-0.8,3.5-2.3,4.3-4.3c0.4-1.1,0.7-2.4,0.7-3.6c0.1-1.5,0.1-2,0.1-5.7v-0.7 c0-3.7,0-4.2-0.1-5.7c0-1.2-0.3-2.4-0.7-3.6c-0.8-2-2.3-3.5-4.3-4.3c-1.1-0.4-2.4-0.7-3.6-0.7C19.2,0,18.8,0,15.1,0L14.3,0z M14.7,2.6c3.9,0,4.4,0,5.9,0.1c0.9,0,1.9,0.2,2.7,0.5c1.3,0.5,2.3,1.5,2.8,2.8c0.3,0.9,0.5,1.8,0.5,2.7c0.1,1.5,0.1,2,0.1,5.9 s0,4.4-0.1,5.9c0,0.9-0.2,1.9-0.5,2.7c-0.5,1.3-1.5,2.3-2.8,2.8c-0.9,0.3-1.8,0.5-2.7,0.5c-1.5,0.1-2,0.1-5.9,0.1s-4.4,0-5.9-0.1 c-0.9,0-1.9-0.2-2.7-0.5c-1.3-0.5-2.3-1.5-2.8-2.8c-0.3-0.9-0.5-1.8-0.5-2.7c-0.1-1.5-0.1-2-0.1-5.9s0-4.4,0.1-5.9 c0-0.9,0.2-1.9,0.5-2.7C3.7,4.7,4.7,3.7,6,3.2c0.9-0.3,1.8-0.5,2.7-0.5C10.3,2.7,10.8,2.7,14.7,2.6L14.7,2.6z"></path> <path class="st0" d="M14.7,19.6c-2.7,0-4.9-2.2-4.9-4.9s2.2-4.9,4.9-4.9c2.7,0,4.9,2.2,4.9,4.9C19.6,17.4,17.4,19.6,14.7,19.6 L14.7,19.6z M14.7,7.1c-4.2,0-7.5,3.4-7.5,7.5c0,4.2,3.4,7.6,7.5,7.6c4.2,0,7.5-3.4,7.5-7.5v0C22.2,10.5,18.9,7.2,14.7,7.1L14.7,7.1 z"></path> <path class="st0" d="M24.3,6.9c0,1-0.8,1.8-1.8,1.8s-1.8-0.8-1.8-1.8c0-1,0.8-1.8,1.8-1.8c0,0,0,0,0,0C23.5,5.1,24.3,5.9,24.3,6.9 C24.3,6.9,24.3,6.9,24.3,6.9z"></path> </svg> 