<svg xmlns="http://www.w3.org/2000/svg" viewBox="0 0 3581.16 750.53"><defs><style>.cls-1,.cls-2{fill:#ff8e00;}.cls-2{font-size:424.44px;font-family:Campton-BoldDEMO, Campton;font-weight:700;}.cls-3{letter-spacing:-0.05em;}.cls-4,.cls-5,.cls-6{fill:#000;}.cls-5{letter-spacing:-0.01em;}.cls-6{letter-spacing:-0.02em;}</style></defs><g id="Слой_2" data-name="Слой 2"><path d="M1998.18,1769.39H1397.35c-68.67-88-175.75-144.65-296-144.65s-227.13,56.47-295.82,144.33H209.42l71.07,85.67H755.18a371.62,371.62,0,0,0-18.75,57.2H327.94l52.73,63.55H726.82Q726,1987.64,726,2000t.79,24.52H421.35l52.73,63.56H736.43a370,370,0,0,0,18.62,56.86H521.25l15.8,19c35.43,34.65,99.3,59.83,174.89,66.64h93.3c68.67,88,175.75,144.64,296.06,144.64s227.38-56.6,296-144.64h55.28c105.88,0,196.14-35.65,230.83-85.68H1447.54a370,370,0,0,0,18.62-56.86h268.52l52.54-63.56H1475.77q.8-12.15.79-24.52t-.79-24.51h352l52.55-63.55H1466.16a370.26,370.26,0,0,0-18.62-56.88h479.8Zm-721.51,421.74A259.39,259.39,0,0,1,841.9,2000q0-10.59.84-21c10.68-133.45,122.36-238.42,258.56-238.42a259.32,259.32,0,0,1,258.45,237.28q.93,10.93.93,22.11A258.68,258.68,0,0,1,1276.67,2191.13Z" transform="translate(-209.42 -1624.74)"/><path class="cls-1" d="M1268,2025.81l-11.23-4.41-9.62-3.77a146.08,146.08,0,0,0-.31-37.68l19-5.11a9.43,9.43,0,0,0,6.62-11.51l-9.13-33.84a9.43,9.43,0,0,0-11.51-6.62l-22.19,6a144.92,144.92,0,0,0-19.58-26.92l13.5-16.34a9.39,9.39,0,0,0-1.25-13.2l-27-22.34a9.41,9.41,0,0,0-13.21,1.25l-15.2,18.39a143.66,143.66,0,0,0-36.65-12.15v-20a9.41,9.41,0,0,0-9.38-9.39h-35.06a9.41,9.41,0,0,0-9.38,9.39v20a143.7,143.7,0,0,0-35,11.38l-11.91-16.82a9.42,9.42,0,0,0-13.09-2.24l-28.6,20.28a9.41,9.41,0,0,0-2.23,13.08l12.3,17.35a145.42,145.42,0,0,0-20.85,28.29l-17.61-6.9a9.41,9.41,0,0,0-12.16,5.31l-12.79,32.64a9.4,9.4,0,0,0,5.31,12.16l20,7.84a146,146,0,0,0-.24,38.39l-9.73,2.62-7.83,2.12a9.39,9.39,0,0,0-6.61,11.5l9.12,33.84a9.42,9.42,0,0,0,11.5,6.63l20.17-5.45a145.22,145.22,0,0,0,23.67,31.89l-14.07,17a9.38,9.38,0,0,0,1.25,13.2l5.48,4.53L1013.9,2154a9.41,9.41,0,0,0,13.21-1.25l16.9-20.43a143.82,143.82,0,0,0,34.69,10.54v19.59a9.41,9.41,0,0,0,9.38,9.39h35.06a9.41,9.41,0,0,0,9.38-9.39V2142a143.1,143.1,0,0,0,32.65-10.91l14.55,20.54a9.41,9.41,0,0,0,13.08,2.22l25.33-17.94,3.27-2.32a9.41,9.41,0,0,0,2.24-13.08l-14.93-21.09a145.59,145.59,0,0,0,22-30.38l17.6,6.89a9.41,9.41,0,0,0,12.16-5.3l12.79-32.64A9.4,9.4,0,0,0,1268,2025.81Zm-164.73,53.76a79.57,79.57,0,1,1,79.57-79.57A79.57,79.57,0,0,1,1103.22,2079.57Z" transform="translate(-209.42 -1624.74)"/><text class="cls-2" transform="translate(1672.79 589.73)"><tspan class="cls-3">C</tspan><tspan class="cls-4" x="311.54" y="0">A</tspan><tspan class="cls-5" x="635.38" y="0">R</tspan><tspan x="926.97" y="0">N</tspan><tspan class="cls-6" x="1243.18" y="0">E</tspan><tspan class="cls-4" x="1493.6" y="0">O</tspan></text><polygon points="1788.76 144.65 3581.16 144.65 3514.62 228.86 1717.92 230.32 1788.76 144.65"/></g></svg>