<?xml version="1.0" encoding="UTF-8"?> <!-- Generator: Adobe Illustrator 19.2.1, SVG Export Plug-In . SVG Version: 6.00 Build 0) --> <svg xmlns="http://www.w3.org/2000/svg" xmlns:xlink="http://www.w3.org/1999/xlink" id="Слой_1" x="0px" y="0px" viewBox="0 0 120.9 21.2" style="enable-background:new 0 0 120.9 21.2;" xml:space="preserve"> <style type="text/css"> .st0{fill:#DB0909;} .st1{fill:#414347;} .st2{fill:#F6F7F9;} </style> <path class="st0" d="M16.6,18.5h-3.9l-1-2.7H4.9l-1,2.7H0l6.2-16h4.3C10.5,2.5,16.6,18.5,16.6,18.5z M10.8,12.7L8.3,5.9l-2.5,6.9 H10.8z M25.6,18.5H18V6.9h7.3c1.1,0,2,0.3,2.6,0.9c0.6,0.6,0.9,1.3,0.9,2.1c0,0.7-0.2,1.2-0.6,1.7C28,12,27.5,12.3,27,12.5 c0.6,0.1,1.2,0.5,1.6,1c0.4,0.5,0.6,1.1,0.6,1.8c0,0.9-0.3,1.7-0.9,2.3C27.6,18.2,26.7,18.5,25.6,18.5L25.6,18.5z M24.9,16 c0.4,0,0.7-0.1,0.9-0.3c0.2-0.2,0.3-0.5,0.3-0.8c0-0.3-0.1-0.6-0.3-0.8c-0.2-0.2-0.5-0.3-0.9-0.3h-3.8V16H24.9z M24.8,11.3 c0.3,0,0.6-0.1,0.8-0.3c0.2-0.2,0.3-0.4,0.3-0.7c0-0.3-0.1-0.5-0.3-0.7s-0.5-0.3-0.8-0.3h-3.7v1.9H24.8z M37.3,18.5h-3.1V9.5H31V6.9 h9.6v2.7h-3.2C37.3,9.5,37.3,18.5,37.3,18.5z M52.3,17c-1.1,1.2-2.6,1.8-4.5,1.8s-3.3-0.6-4.5-1.8s-1.7-2.6-1.7-4.3 c0-1.7,0.6-3.1,1.7-4.3s2.6-1.8,4.5-1.8s3.3,0.6,4.5,1.8c1.1,1.2,1.7,2.6,1.7,4.3C54,14.4,53.4,15.8,52.3,17z M45.7,15.1 c0.5,0.6,1.3,1,2.2,1c0.9,0,1.6-0.3,2.2-1c0.5-0.6,0.8-1.5,0.8-2.4c0-0.9-0.3-1.7-0.8-2.4c-0.5-0.6-1.3-1-2.2-1 c-0.9,0-1.6,0.3-2.2,1c-0.5,0.6-0.8,1.4-0.8,2.4C44.9,13.6,45.2,14.4,45.7,15.1z"></path> <path class="st1" d="M61.1,18.5h-3.4v-13H53v-3h12.8v3h-4.7L61.1,18.5L61.1,18.5z M71,18.7c-1.8,0-3.3-0.6-4.4-1.7 c-1.2-1.1-1.8-2.6-1.8-4.4c0-1.7,0.6-3.1,1.7-4.3c1.1-1.2,2.6-1.8,4.3-1.8c1.7,0,3.1,0.6,4.2,1.8c1.1,1.2,1.6,2.7,1.6,4.6v0.7H68 c0.1,0.8,0.4,1.4,1,1.9c0.6,0.5,1.4,0.8,2.3,0.8c0.5,0,1.1-0.1,1.7-0.3c0.6-0.2,1.1-0.5,1.4-0.8l1.3,2C74.6,18.2,73,18.8,71,18.7 L71,18.7z M73.6,11.6c-0.1-0.7-0.3-1.3-0.8-1.8C72.4,9.3,71.7,9,70.8,9c-0.9,0-1.5,0.3-2,0.8c-0.5,0.5-0.8,1.1-0.8,1.8H73.6 L73.6,11.6z M89.4,18.5H86l-2.6-3.9l-2.7,3.9h-3.4l4.1-5.9l-3.9-5.6h3.4l2.4,3.6l2.4-3.6h3.4l-3.9,5.6L89.4,18.5L89.4,18.5z"></path> <path class="st0" d="M95.5,0H119c1,0,1.8,0.8,1.8,1.8v17.5c0,1-0.8,1.8-1.8,1.8H95.5c-1,0-1.8-0.8-1.8-1.8V1.8 C93.6,0.8,94.5,0,95.5,0z"></path> <path class="st2" d="M103.1,15.7c-0.9,0-1.6-0.1-2.3-0.4c-0.7-0.3-1.2-0.7-1.6-1.1l1.1-1.4c0.3,0.3,0.7,0.6,1.2,0.8 c0.5,0.2,1,0.3,1.5,0.3c0.6,0,1-0.1,1.4-0.3c0.3-0.2,0.5-0.5,0.5-0.9c0-0.4-0.2-0.7-0.5-0.9c-0.3-0.2-0.8-0.3-1.5-0.3 c-0.6,0-1,0-1.2,0V9.6c0.1,0,0.5,0,1.2,0c1.2,0,1.8-0.3,1.8-1c0-0.4-0.2-0.7-0.5-0.9c-0.3-0.2-0.8-0.3-1.3-0.3c-0.9,0-1.8,0.3-2.5,1 l-1-1.3c0.9-1,2.2-1.6,3.7-1.6c1.1,0,2,0.2,2.7,0.7c0.7,0.5,1,1.1,1,1.9c0,0.6-0.2,1.1-0.6,1.5c-0.4,0.4-0.9,0.6-1.5,0.8 c0.6,0.1,1.1,0.3,1.6,0.7c0.5,0.4,0.7,1,0.7,1.6c0,0.9-0.3,1.5-1.1,2.1C105.2,15.4,104.3,15.7,103.1,15.7L103.1,15.7z M111.6,15.5 h-2.3l3.5-7.9h-4.9V5.7h7.3v1.5L111.6,15.5z"></path> </svg> 