<?xml version="1.0" encoding="UTF-8"?> <!-- Generator: Adobe Illustrator 24.0.1, SVG Export Plug-In . SVG Version: 6.00 Build 0) --> <svg xmlns="http://www.w3.org/2000/svg" xmlns:xlink="http://www.w3.org/1999/xlink" id="Слой_1" x="0px" y="0px" viewBox="0 0 120.9 21.2" style="enable-background:new 0 0 120.9 21.2;" xml:space="preserve"> <style type="text/css"> .st0{fill-rule:evenodd;clip-rule:evenodd;fill:#414347;} </style> <g> <path class="st0" d="M6.2,2.5L0,18.5h3.9l1-2.7h6.9l1,2.7h3.9l-6.2-16H6.2z M5.8,12.7l2.5-6.9l2.5,6.9H5.8z"></path> <path class="st0" d="M27,12.5c0.6-0.2,1-0.5,1.4-0.9c0.4-0.5,0.6-1,0.6-1.7c0-0.8-0.3-1.5-0.9-2.1s-1.5-0.9-2.6-0.9H18v11.6h7.6 l0,0c1.1,0,2-0.3,2.6-0.9c0.6-0.6,0.9-1.3,0.9-2.3c0-0.7-0.2-1.3-0.6-1.8C28.1,13,27.6,12.6,27,12.5z M21.1,9.4h3.7 c0.3,0,0.6,0.1,0.8,0.3s0.3,0.4,0.3,0.7c0,0.3-0.1,0.5-0.3,0.7c-0.2,0.2-0.5,0.3-0.8,0.3h-3.7V9.4z M25.7,15.7 c-0.2,0.2-0.5,0.3-0.9,0.3h-3.8v-2.2h3.8c0.4,0,0.7,0.1,0.9,0.3c0.2,0.2,0.3,0.5,0.3,0.8C26.1,15.2,26,15.5,25.7,15.7z"></path> <polygon class="st0" points="31,9.5 34.2,9.5 34.2,18.5 37.3,18.5 37.3,9.5 40.6,9.5 40.6,6.9 31,6.9 "></polygon> <path class="st0" d="M47.9,6.6c-1.9,0-3.3,0.6-4.5,1.8c-1.1,1.2-1.7,2.6-1.7,4.3c0,1.7,0.6,3.2,1.7,4.3c1.1,1.2,2.6,1.8,4.5,1.8 s3.3-0.6,4.5-1.8c1.1-1.2,1.7-2.6,1.7-4.3c0-1.7-0.6-3.1-1.7-4.3C51.2,7.2,49.7,6.6,47.9,6.6z M50,15.1c-0.5,0.6-1.3,1-2.2,1 c-0.9,0-1.6-0.3-2.2-1c-0.5-0.6-0.8-1.5-0.8-2.4c0-0.9,0.3-1.7,0.8-2.4c0.5-0.6,1.2-1,2.2-1s1.6,0.3,2.2,1c0.5,0.6,0.8,1.4,0.8,2.4 C50.8,13.6,50.6,14.4,50,15.1z"></path> <polygon class="st0" points="65.8,2.5 53,2.5 53,5.4 57.7,5.4 57.7,18.5 61.1,18.5 61.1,18.5 61.1,5.4 65.8,5.4 "></polygon> <polygon class="st0" points="89.1,6.9 85.7,6.9 83.3,10.4 80.9,6.9 77.5,6.9 81.4,12.5 77.3,18.5 80.7,18.5 83.3,14.5 86,18.5 89.4,18.5 85.2,12.5 "></polygon> <path class="st0" d="M70.8,6.6c-1.7,0-3.2,0.6-4.3,1.8c-1.1,1.2-1.7,2.6-1.7,4.3c0,1.8,0.6,3.3,1.8,4.4c1.2,1.1,2.6,1.7,4.4,1.7v0 c2,0,3.6-0.5,4.8-1.6l-1.3-2C74,15.5,73.6,15.8,73,16c-0.6,0.2-1.2,0.3-1.7,0.3c-0.9,0-1.7-0.3-2.3-0.8c-0.6-0.5-0.9-1.1-1-1.9h8.6 V13c0-1.9-0.5-3.4-1.6-4.6C73.9,7.2,72.5,6.6,70.8,6.6z M67.9,11.6c0.1-0.7,0.4-1.3,0.8-1.8c0.5-0.5,1.1-0.8,2-0.8 c0.9,0,1.6,0.3,2.1,0.8c0.5,0.5,0.7,1.1,0.8,1.8H67.9z"></path> <path class="st0" d="M119,0H95.5c-1,0-1.8,0.8-1.8,1.8v17.5c0,1,0.8,1.8,1.8,1.8H119c1,0,1.8-0.8,1.8-1.8V1.8 C120.9,0.8,120.1,0,119,0z M105.9,14.9c-0.7,0.5-1.6,0.8-2.8,0.8v0c-0.9,0-1.6-0.1-2.3-0.4c-0.7-0.3-1.2-0.7-1.6-1.1l1.1-1.4 c0.3,0.3,0.7,0.6,1.2,0.8c0.5,0.2,1,0.3,1.5,0.3c0.6,0,1-0.1,1.4-0.3c0.3-0.2,0.5-0.5,0.5-0.9c0-0.4-0.2-0.7-0.5-0.9 c-0.3-0.2-0.8-0.3-1.5-0.3c-0.6,0-1,0-1.2,0V9.6c0.1,0,0.5,0,1.2,0c1.2,0,1.8-0.3,1.8-1c0-0.4-0.2-0.7-0.5-0.9 c-0.3-0.2-0.8-0.3-1.3-0.3c-0.9,0-1.8,0.3-2.5,1l-1-1.3c0.9-1,2.2-1.6,3.7-1.6c1.1,0,2,0.2,2.7,0.7c0.7,0.5,1,1.1,1,1.9 c0,0.6-0.2,1.1-0.6,1.5c-0.4,0.4-0.9,0.6-1.5,0.8c0.6,0.1,1.1,0.3,1.6,0.7c0.5,0.4,0.7,1,0.7,1.6C107,13.6,106.6,14.3,105.9,14.9z M115.3,7.1l-3.6,8.3h-2.3l3.5-7.9h-4.9V5.7h7.3V7.1z"></path> </g> </svg> 