<?xml version="1.0" encoding="UTF-8"?> <svg xmlns="http://www.w3.org/2000/svg" id="Слой_1" data-name="Слой 1" viewBox="0 0 29.39 29.39"> <defs> <style>.cls-1{fill:#414347;fill-rule:evenodd;}</style> </defs> <title>vk</title> <path class="cls-1" d="M949.72,525.15h20.33a4.53,4.53,0,0,1,4.53,4.53V550a4.53,4.53,0,0,1-4.53,4.53H949.72a4.53,4.53,0,0,1-4.53-4.53V529.68a4.53,4.53,0,0,1,4.53-4.53Zm16.83,14.94s2.53-3.58,2.79-4.76c.08-.42-.1-.66-.54-.66h-2.2a.82.82,0,0,0-.85.54,19.92,19.92,0,0,1-2.64,4.14c-.46.52-.7.67-1,.67s-.3-.17-.3-.64V535.3c0-.58-.07-.74-.54-.74h-3.53c-.27,0-.44.15-.44.37,0,.54.83.66.83,2.12v3c0,.6,0,.84-.32.84-.76,0-2.56-2.61-3.57-5.57-.2-.61-.42-.77-1-.77h-2.2a.52.52,0,0,0-.56.53c0,.59.69,3.32,3.4,7,1.82,2.45,4.2,3.78,6.36,3.78,1.31,0,1.63-.22,1.63-.77v-1.88c0-.48.18-.68.45-.68s.84.1,2.09,1.33c1.48,1.41,1.58,2,2.39,2h2.47c.25,0,.49-.11.49-.54s-.73-1.54-1.84-2.72c-.45-.61-1.19-1.26-1.42-1.56S966.31,540.46,966.55,540.09Z" transform="translate(-945.19 -525.15)"></path> </svg> 